<svg width="34" height="37" viewBox="0 0 34 37" fill="none" xmlns="http://www.w3.org/2000/svg">
<g filter="url(#filter0_d_278_2469)">
<path d="M12.25 3.75L5.2 6.125C4.95 6.2125 4.75 6.4375 4.75 6.725V25.625C4.75 25.7908 4.81585 25.9497 4.93306 26.0669C5.05027 26.1842 5.20924 26.25 5.375 26.25C5.4375 26.25 5.5 26.25 5.575 26.2125L12.25 23.625L17.45 25.45C17.325 24.9 17.25 24.325 17.25 23.75C17.25 23.4625 17.25 23.175 17.3 22.875L12.25 21.125V6.25L19.75 8.875V18.2C21.0875 17 22.8375 16.25 24.75 16.25C25.625 16.25 26.4625 16.4125 27.25 16.7V4.375C27.25 4.20924 27.1842 4.05027 27.0669 3.93306C26.9497 3.81585 26.7908 3.75 26.625 3.75H26.425L19.75 6.375L12.25 3.75ZM23.5 18.75V22.5H19.75V25H23.5V28.75H26V25H29.75V22.5H26V18.75H23.5Z" fill="#787878"/>
</g>
<defs>
<filter id="filter0_d_278_2469" x="-3" y="0" width="38" height="38" filterUnits="userSpaceOnUse" color-interpolation-filters="sRGB">
<feFlood flood-opacity="0" result="BackgroundImageFix"/>
<feColorMatrix in="SourceAlpha" type="matrix" values="0 0 0 0 0 0 0 0 0 0 0 0 0 0 0 0 0 0 127 0" result="hardAlpha"/>
<feOffset dy="4"/>
<feGaussianBlur stdDeviation="2"/>
<feComposite in2="hardAlpha" operator="out"/>
<feColorMatrix type="matrix" values="0 0 0 0 0 0 0 0 0 0 0 0 0 0 0 0 0 0 0.25 0"/>
<feBlend mode="normal" in2="BackgroundImageFix" result="effect1_dropShadow_278_2469"/>
<feBlend mode="normal" in="SourceGraphic" in2="effect1_dropShadow_278_2469" result="shape"/>
</filter>
</defs>
</svg>
